<?xml version="1.0" encoding="utf-8"?>
<!-- Generator: Adobe Illustrator 22.0.0, SVG Export Plug-In . SVG Version: 6.00 Build 0)  -->
<svg version="1.1" id="图层_1" xmlns="http://www.w3.org/2000/svg" xmlns:xlink="http://www.w3.org/1999/xlink" x="0px" y="0px"
	 viewBox="0 0 180.1 201" style="enable-background:new 0 0 180.1 201;" xml:space="preserve">
<style type="text/css">
	.st0{fill:#3E3A39;}
	.st1{fill:#F4A11A;}
	.st2{fill:#EEA73A;}
</style>
<g>
	<g>
		<path class="st0" d="M66.1,152.5c-0.8,0.2-2.4,0.5-3,1.4c-0.7,0.9-1.1,0.9-2.1,0.8c-1-0.1-2.4,0.4-2.9,1.2
			c-0.6,0.9,0.5,1.4,1.2,1.4c2.1,0.2,4.2-0.3,6-1.4l-1.6,6.3c-0.6,0.4-1.1,0.9-1.5,1.4c-0.6-3.7-2.4-5.6-5.6-5.6c0,0-1.9-0.3-2.4,0
			c-0.4,0.2-1.2,1-1.2,1.4c0.1,3.5,0.5,6.2,0.5,6.2s0.3,1.5,0.4,2c0.4,1.6,1.2,5.1,2.7,5.7c3.4,1.3,5.4-2.7,5.7-5
			c0.2,0.1,0.4,0.1,0.7,0.1c2.5,0.2,4.5-1,6.4-2.5c2.5-0.9,3.8-3,3.8-6.5v-0.7C73.1,155.4,68.8,152,66.1,152.5z"/>
		<path class="st0" d="M97.1,153.7c-0.9-0.3-2.9-0.2-3.8,0c-1,0.2-3.6,1.9-3.6,1.9c3.4-5.6,10.9-5.9,15.1-11.5
			c0.4-0.5,0.4-1.9,0-2.4c-0.6-0.8-3.8-0.7-3.8-0.7l-3.1,1.4c0-4.2-1.9-7.1-5.8-8.9c-1.6,0.5-2.4,1.1-2.4,1.9c0,0-0.2,2.4,0,3.1
			c0.6,2,1.7,3.4,1.7,5c0,0-1.1,1.7-1.7,1.9c-0.2,0.1-0.5,0.1-0.7,0c-3-0.9-3.3-2.8-5.8-2.6l-3.1,0.7v-1.9c0,0,1,0.2,1.2,0
			s0.1-0.9,0-1.2c-0.3-0.8-2.4-2.6-2.4-2.6c-1,0.8-1.6,3.4-1.9,7.7c0,0-2.4-1.1-3.1-0.7c-0.7,0.4-0.6,2.3-0.7,3.1
			c-0.1,1.1-0.1,3.4,0,4.6c0.4,4.7,2.2,7,4.3,7c2.1,0,7.6-4.5,16.6-13.4h0.7c-10.2,10.2-15.9,21.6-17,34.2c0.2,0,0.4,0,0.6,0
			c0.1,0,0.1,0,0.2,0l3.6-0.7l0.4-2.2c0.4,0.6,1.4,0.9,2.4,0.5c0.4-0.1,0.7-0.3,1.1-0.5v0.2l-1.4,7.4c0,0.1,0,0.2,0,0.3
			c-0.5,0.3-0.7,0.7-0.6,1.1c0.7,2.8,4.1,1.5,5.9,0.8c0.2-0.1,2.5-0.9,2.8-1.4c0.4-0.6,0.2-3.2,0.2-3.2l1.2-5.8
			c0.8-0.2,1.9-0.8,2.6-1.6c0.2-0.1,0.3-0.2,0.5-0.3c0.3-0.2,0.8-0.7,0.8-1.1c0-0.9-0.1-1.5-0.5-2.2c-0.4-0.8-1.2-1.2-2-1.5
			c-0.4-0.2-0.9-0.2-1.3-0.1v-0.6l3.8-3.8c-0.5-1.3-1.8-1.9-3.8-1.9h-2.6c0-1.3-0.8-2.7-2.4-4.3c2.1-2.6,4.5-4.5,7-3.8
			c5.2,1.5,7,8.6,7,17c0,9.3-3.3,15.7-11.3,17.2c-1.1,0.2-4.5,1.1-4.5,1.1c-1.4,0-2.5-0.5-3.7-0.8s-3.3-1.5-3.7-0.3
			c-0.3,1,3.4,3.9,6.7,4.3c3.4,0.4,6.2-0.4,8.4-1.6c2.1-0.8,4-2,5.7-3.4c0.2,0,0.5,0,0.6,0c4.5-1.4,5.8-6.2,5.8-10.6V172
			C106.7,164.4,104.6,156.1,97.1,153.7z M84.4,149.4c-0.4,0.5-1.9,0.9-2.4,0.5c0,0-0.3-1.6,0-1.9c0.1-0.1,0.5,0,0.7,0
			c0.4,0.1,1.4,0.3,1.7,0.7C84.5,148.8,84.5,149.2,84.4,149.4z M85.5,174.8c-0.8,0.3-1.6,0.7-2.4,1c-0.2,0.1-0.4,0.2-0.5,0.3
			l1.3-7.3H87L85.5,174.8z M85.8,166.4c-0.2,0-0.6,0.1-0.7,0s0-0.5,0-0.7c0.1-0.8,0.7-3.1,0.7-3.1s1.3-0.3,1.6,0.1
			C89,164.8,86.4,166.4,85.8,166.4z"/>
	</g>
	<g>
		<path class="st0" d="M145.7,154.5l2.9-0.1c0,0,0.4,4,1.7,5c0.4,0.3,1.8,0.5,2.5,0.1c0.6-0.3,1.2-0.9,1.1-1.5l0,0v-3.4l2.5,0.1
			l-2,3.7c-0.3,0.5-1.1,1.5-1.1,1.5l-3.6,5.3v0.5c1.3,0,2.2-2.5,5-2.9c0.3,0,0.8,0.3,1,0.5c0.1,0.1-0.1,0.4,0,0.5s0.5,0,0.7,0
			c4.7-1.3,5.4-6,6.7-8.6c0.1-0.1,0.4,0,0.5,0c0.4,0.1,1.2,0.5,1.7,0.5c0.4,0,1.2-0.2,1.4-0.5c0.1-0.2,0.1-0.7,0-1
			c-0.3-0.5-1.9-1.4-1.9-1.4l-0.7-0.5v-0.5c0,0,0.9-5,0.7-6.7c0-0.2-0.2-0.4-0.3-0.6c-0.6-2.5-1.3-5.2-3.3-6.6
			c-0.6-0.5-2.2,0.4-1.4,1c0.3,0.2,0.7,0.4,0.8,0.7c0.2,0.4,0.2,1.2,0.2,1.6c0.1,6.8-3.2,10.1-5.3,10.1h-2.6c-0.8,0,0.1-5.1-4.9-8.6
			c-0.2-0.2-1-0.2-1.2,0c-0.1,0.1,0,0.4,0,0.5c0.1,1.2,0.3,3.5,0.5,4.7c0.1,1,0.7,3.9,0.7,3.9l-4.3,0.5h-0.5
			C143.7,153.1,144.4,154.5,145.7,154.5z"/>
		<path class="st0" d="M170.1,164.1c-7.2,0-18.9-2.1-25,6.2c-0.8,1.1-0.5,5.3-0.5,5.3c-2.4-1.3-2.6-3.2-3.6-4.8
			c-0.1-0.2-0.7-0.5-1-0.5c-0.4,0-1,0.6-1.2,1c-0.3,0.5,0,2.4,0,2.4s4.7,10.5,7.9,12c3.3,1.5,16.3,4.3,18.7,4.3
			c4.3-2.7,4.7-5.5,6.5-8.6l3.8-8.2c1,0,1.4-1,1.4-2.9C177.3,168.1,174.9,166.1,170.1,164.1z M154,172.3c0,0.8-2.4,0.1-4.1,2.4
			c-0.2,0.3,0,1.4,0,1.4c0,0.8,0.9,2.4,2.6,1.9c0.2,0,0.3-0.5,0.5-0.5s0.4,0.3,0.5,0.5c0,0.1,0,0.4,0,0.5c-0.2,2.9-1.5,4.3-3.6,4.3
			c-0.3-1.3-1.6-3-3.8-5.3v-3.4c0-1.8,2.6-3.2,7.9-4.3V172.3z M162.4,184.5c-0.2,0.2-0.5,0.6-0.7,0.7c-0.1,0-0.4,0.1-0.5,0
			c-1.1-1.1,0.1-1.1-1.4-2.4c-4.7-4,1.9-4.6,3.1-6.7c0.1-0.2,0-0.7,0-1c0-0.5-1.8-2.1-5.5-4.8v-1.4l9.1-1c0,0,0.9-0.1,1.2,0
			C169.6,168.4,166.2,180.1,162.4,184.5z"/>
		<path class="st0" d="M137.4,146.4c-0.4-1.6-2.1-4.4-3.1-5.8c-0.4-0.5-1.9-1.9-1.9-1.9c-2.1,5-4,8.3-5.8,10.1c0,0-0.9,0.1-1.2,0
			c-2.6-0.8-4.3-3.1-5.8-2.4c-0.5,0.3-1.4,1.3-1.4,1.9c0,1.4,1.1,2.6,1.8,4c0.5,0.9,1.5,1.7,1.6,2.7c0,0.2,0,0.3,0,0.5
			c0.1,0.8,0,1.7,0,2.6v0.1c-0.4,1.3-0.8,2.6-1,3.9c0,0.1-0.1,0.4,0,0.5c0.1,0.5,0.7,1.6,1.2,1.9c0.8,0.5,3.6,0.5,3.6,0.5
			s1.6,0,2,0.5c0.1,0.1,0,0.4,0,0.5c-0.9,4.7-4.1,7.5-5.6,11.5c-0.6,1.6-1,7-1,7c0,0.8,1.8,1.5,5.3,2.2c1.3-0.3,1.1-1.4,1.9-2.2
			c0.1-0.1,1,0,1,0.1c0.1,2.4,0.6,3.5,1.4,3.5c0,0,0.7-0.5,1-0.5c0.2,0,0.3,0.4,0.5,0.5s1,0,1,0c1-7.7,2.5-10.6,3.6-11.5
			c0.7-0.6,0.5-3.8,0.5-3.8c0-3.2-1-8.5-3.1-15.8v-1.4C136.2,152.6,138.1,149.5,137.4,146.4z M128.5,166.1c-0.1-0.1,0-0.4,0-0.5
			c0.2-0.5,1-1.2,1.4-1.4c0.1,0,0.4-0.1,0.5,0c0.9,0.8,1,4.8,1,4.8c-0.8,0-0.3-1-1.8-2.2C129.4,166.6,128.7,166.2,128.5,166.1z
			 M130.5,180.9c-0.2,0.2-0.8,0.2-1,0c-0.5-0.4-0.5-1.8-0.5-2.4c0.1-2.2,1.6-3.5,2.9-4.3C131.9,174.2,131.2,180.2,130.5,180.9z
			 M133,182.3c0,0,0,1.2-0.3,1.5c-0.2,0.1-0.7,0.2-0.8,0c-0.8-0.9,0-4,1-4.8c0.1-0.1,0.4-0.1,0.5,0C133.9,179.6,133,182.3,133,182.3
			z"/>
	</g>
	<g>
		<path class="st0" d="M26.1,141.3c0,0,4.1,3.1,5.8,3.1c1.6,0,3.6-2.5,3.1-3.6c-1.3-3.2-8.1-6.7-13.7-6.5c-0.2,0-0.4,0.5-0.5,0.7
			c0,0.1-0.1,0.4,0,0.5C22.8,139.8,23.6,139.7,26.1,141.3z"/>
		<path class="st0" d="M44,178c-2.9-2.9-6-5.7-13-7c-0.1,0-0.4,0-0.5,0c-1.4,0.3-3.6,0-2.5,2.8c0,0,5.1,2.3,5.4,3.6
			c0.1,0.4,1.3,2.7,4.1,5.6c0.8,0.8,2.5,2.4,3.6,2.6c2.9,0.6,6.2-1,6.2-2.2v-0.5C47.3,181.3,46.1,180.1,44,178z"/>
		<path class="st0" d="M27.7,151.9c0.2,0,0.4,0,0.6,0.2c0.2,0.1,0.3,0.3,0.6,0.4c0.1,0.1,0.1,0.1,0.2,0.1c0.5,0.4,1.2,0.8,1.5,0.9
			c0.8,0.2,2.7,0.5,3.4,0c0.5-0.4,0.6-2,0.5-2.6c-1.1-4.3-6.8-5.3-12.2-5.3c0,0-0.2,0.8,0,1c0.8,0.8,3.7,0.6,4.8,3.6
			c0.1,0.3,0.3,1.1,0,1.2c-3.5,0.6-2.7,4-2.6,4.1c0.3,1,2.2,2.4,2.2,3.4c0,0.5-1,1-1.2,1.4c0,0.1,0,0.5,0,0.5s0.5-0.4,0.7-0.5
			c0.3-0.1,1.1-0.1,1.4,0c0.5,0.2,1.2,1,1.7,1.2c0.2,0.1,0.7,0,1,0c0.6,0,2.5-1.2,1.7-3.4c-0.5-1.3-3.4-3.2-4.9-4.1l0,0
			c-0.2-0.1-0.3-0.2-0.5-0.3c-0.2-0.2-0.3-0.5-0.1-0.8C26.6,152.5,27.1,152.2,27.7,151.9z"/>
		<path class="st0" d="M31.1,180.4c0,0-0.5-0.1-0.7,0c-1.4,0.8-1.9,2.5-5.2,3.6l-3.1,0.5c0,0-1.2,0.3-1.4,0c-0.2-0.2,0-1,0-1
			c3.8-6.6,1.6-9.4,3-10.4c0,0,12.9-6,13.5-7.5c1-2.8-1.8-3.3-3.9-3.3c0,0-7.8,2.8-10.5,3.3c-0.5,0.1-0.5,0-0.5,0
			c-1.8-10.9-3.1-19.1-4.1-21.6h-0.7c-0.8,0-3.3,6-2.6,18c0.1,0.9,0.4,2.8,0.8,4.3c0,0,0.2,2.1-0.8,2.6c-0.5,0.3-1.1,0.5-1.4,0.6
			c-2.3,0.4-9.9-0.9-9.2,1.6c0.2,0.8,1.5,2.1,1.8,3c0.9,2.7,1.1,4.8,3.1,4.3c1.2-0.3,4.6-2.2,4.6-2.2v0.5c0.4,3-1.8,8.5-1.8,10.1
			l-0.7,4.8c0,1.3,1.2,2.2,3.6,1.9s6.9-1.8,9.1-2.6c0.3-0.1,0.7-0.3,1-0.5c1.3-0.8,3.4-3.1,4.3-4.2
			C29.7,185.2,34.6,175.7,31.1,180.4z"/>
	</g>
</g>
<path class="st0" d="M152.8,15.4c0,0-1.7-6.3-7.4-2.2c-14.7,10.1-53.1,38.6-58.5,64c-4.9,16.9,5.5,35.4,24.1,42
	c18.5,6.6,38.2-1.1,45.1-17.1C168.2,78.8,157.3,32,152.8,15.4z M122.8,111c-12.5,0-22.5-10.1-22.5-22.5c0-12.5,10.1-22.6,22.5-22.6
	s22.5,10.1,22.5,22.6C145.3,100.9,135.2,111,122.8,111z"/>
<path class="st0" d="M122.8,87.9c6.6,0,12.2,2.9,14,6.9c-0.2-7.6-6.4-13.6-14-13.6s-13.8,6.1-14,13.6
	C110.6,90.8,116.2,87.9,122.8,87.9z"/>
<path class="st1" d="M94.5,77.2c-5.4-25.4-43.7-53.9-58.5-64l0,0c-5.5-3.9-7.3,1.7-7.4,2.2c-4.5,16.6-15.4,63.4-3.4,86.8
	c6.9,16,26.6,23.7,45.1,17.1C88.9,112.6,99.4,94.1,94.5,77.2z M59.6,111C47.1,111,37,100.9,37,88.5C37,76,47.1,65.9,59.6,65.9
	S82.1,76,82.1,88.5C82.2,100.9,72.1,111,59.6,111z"/>
<path class="st2" d="M59.7,87.9c6.6,0,12.2,2.9,14,6.9c-0.2-7.6-6.4-13.6-14-13.6s-13.8,6.1-14,13.6C47.5,90.8,53.1,87.9,59.7,87.9z
	"/>
</svg>
