<?xml version="1.0" encoding="utf-8"?>
<!-- Generator: Adobe Illustrator 22.0.0, SVG Export Plug-In . SVG Version: 6.00 Build 0)  -->
<svg version="1.1" id="图层_1" xmlns="http://www.w3.org/2000/svg" xmlns:xlink="http://www.w3.org/1999/xlink" x="0px" y="0px"
	 viewBox="0 0 20.1 29.5" style="enable-background:new 0 0 20.1 29.5;" xml:space="preserve">
<style type="text/css">
	.st0{fill:#7ADBD4;}
</style>
<g>
	<path class="st0" d="M10,9.4c-5.5,0-10,4.5-10,10c0,5.5,4.5,10,10,10c2.3,0,4.4-0.8,6.1-2.1c0.8,1.3,2.3,2.1,3.9,2.1v-10
		C20.1,13.9,15.6,9.4,10,9.4z M10,24.8c-2.9,0-5.3-2.4-5.3-5.3c0-2.9,2.4-5.3,5.3-5.3c2.9,0,5.3,2.4,5.3,5.3
		C15.3,22.4,13,24.8,10,24.8z"/>
	<path class="st0" d="M17.1,8.6V0c-2,1.3-4.5,2.1-7.1,2.1C7.4,2.1,5,1.3,2.9,0v8.6C5,7.3,7.4,6.5,10,6.5C12.6,6.5,15.1,7.3,17.1,8.6
		z"/>
</g>
</svg>
