<?xml version="1.0" standalone="no"?><!DOCTYPE svg PUBLIC "-//W3C//DTD SVG 1.1//EN" "http://www.w3.org/Graphics/SVG/1.1/DTD/svg11.dtd"><svg t="1680071042829" class="icon" viewBox="0 0 1024 1024" version="1.1" xmlns="http://www.w3.org/2000/svg" p-id="30675" xmlns:xlink="http://www.w3.org/1999/xlink" width="200" height="200"><path d="M884.224 834.048h-20.992V381.952c0-17.408-14.336-32.256-32.256-32.256h-157.696c-4.608 0-7.68 3.584-7.68 7.68v476.16h-34.304V172.544c0-24.576-20.48-45.056-45.056-45.056h-373.76c-24.576 0-45.056 20.48-45.056 45.056v661.504h-19.456c-15.872 0-28.672 12.8-28.672 28.672s12.8 28.672 28.672 28.672h736.768c15.872 0 28.672-12.8 28.672-28.672s-13.312-28.672-29.184-28.672zM312.32 310.272h174.592c14.336 0 25.6 11.264 25.6 25.6s-11.264 25.6-25.6 25.6H312.32c-14.336 0-25.6-11.264-25.6-25.6 0.512-14.336 11.776-25.6 25.6-25.6zM312.32 450.56h174.592c14.336 0 25.6 11.264 25.6 25.6s-11.264 25.6-25.6 25.6H312.32c-14.336 0-25.6-11.264-25.6-25.6s11.776-25.6 25.6-25.6z m0 141.312h174.592c14.336 0 25.6 11.264 25.6 25.6s-11.264 25.6-25.6 25.6H312.32c-14.336 0-25.6-11.264-25.6-25.6s11.776-25.6 25.6-25.6z" fill="#F0EBFD" p-id="30676"></path></svg>