<svg fill="none" height="18" viewBox="0 0 18 18" width="18" xmlns="http://www.w3.org/2000/svg"><path clip-rule="evenodd" d="m14.9705 15.0967v-10.66245l-3-1.43425-3.00004 1.43425v10.66245zm1 0v-10.66245c0-.38515-.2212-.73607-.5687-.9022l-3-1.43425c-.2728-.1304-.5899-.1304-.8627 0l-2.99997 1.43425c-.34748.16613-.56867.51705-.56867.9022v2.0876l-1.91977-.92224c-.2737-.13148-.59233-.13148-.86603 0l-2 .96079c-.34656.16648-.56698.51691-.56698.90138v7.63492h-1.11768c-.27614 0-.5.2238-.5.5 0 .2761.22386.5.5.5h1.11768v.0008h1 4 .35278.64722.35278 6.00004 1v-.0008h1.0295c.2761 0 .5-.2239.5-.5 0-.2762-.2239-.5-.5-.5zm-12.35282 0v-7.63492l2-.96078 2 .96078v7.63492zm9.05882-7.97073c0-.27614-.2238-.5-.5-.5-.2761 0-.5.22386-.5.5v5.58823c0 .2761.2239.5.5.5.2762 0 .5-.2239.5-.5zm-6.6765 2.79492c.27614 0 .5.22381.5.50001v2.2941c0 .2762-.22386.5-.5.5s-.5-.2238-.5-.5v-2.2941c0-.2762.22386-.50001.5-.50001z" fill="#2f54eb" fill-rule="evenodd"/></svg>