<?xml version="1.0" standalone="no"?><!DOCTYPE svg PUBLIC "-//W3C//DTD SVG 1.1//EN" "http://www.w3.org/Graphics/SVG/1.1/DTD/svg11.dtd"><svg t="1680058489888" class="icon" viewBox="0 0 1024 1024" version="1.1" xmlns="http://www.w3.org/2000/svg" p-id="12608" xmlns:xlink="http://www.w3.org/1999/xlink" width="200" height="200"><path d="M981.333333 437.333333v522.666667a21.333333 21.333333 0 0 1-21.333333 21.333333h-85.333333a21.333333 21.333333 0 0 1-21.333334-21.333333V405.333333a21.333333 21.333333 0 0 1 21.333334-21.333333h53.333333a53.393333 53.393333 0 0 1 53.333333 53.333333zM192 213.333333H96a53.393333 53.393333 0 0 0-53.333333 53.333334v693.333333a21.333333 21.333333 0 0 0 21.333333 21.333333h128a21.333333 21.333333 0 0 0 21.333333-21.333333V234.666667a21.333333 21.333333 0 0 0-21.333333-21.333334z m565.333333-170.666666H309.333333a53.393333 53.393333 0 0 0-53.333333 53.333333v864a21.333333 21.333333 0 0 0 21.333333 21.333333h170.666667a21.333333 21.333333 0 0 0 21.333333-21.333333v-245.333333a32.033333 32.033333 0 0 1 32-32h64a32.033333 32.033333 0 0 1 32 32v245.333333a21.333333 21.333333 0 0 0 21.333334 21.333333h170.666666a21.333333 21.333333 0 0 0 21.333334-21.333333V96a53.393333 53.393333 0 0 0-53.333334-53.333333z" fill="#EBEEFD" p-id="12609"></path></svg>