<svg fill="none" height="18" viewBox="0 0 18 18" width="18" xmlns="http://www.w3.org/2000/svg"><g fill="#ffa500"><path d="m15.0731 7.71704.6979.55899c.1898.15117.4658.12128.617-.0668.1511-.18985.1212-.46582-.0668-.61699l-6.77289-5.43868c-.25137-.20214-.60293-.20214-.8543 0l-6.82558 5.4668c-.18985.15117-.21973.42891-.06856.61699.15117.18985.42891.21973.61699.06856l.64512-.5168v7.46369h-.80859c-.24258 0-.43945.1969-.43945.4394 0 .2426.19687.4395.43945.4395h13.68281c.2426 0 .4395-.1969.4395-.4395 0-.2425-.1969-.4394-.4395-.4394h-.8631zm-11.13221-.63105 5.18027-4.14844 5.07304 4.07461v8.24234h-3.0287v-4.4437c0-.4008-.3252-.726-.726-.726h-2.69295c-.40078 0-.72597.3252-.72597.726v4.4437h-3.07969zm6.34571 8.16681h-2.38712v-4.2891h2.38712z"/><path d="m11.8794 7.19824h-5.57227c-.24258 0-.43945.19688-.43945.43946 0 .24257.19687.43945.43945.43945h5.57227c.2426 0 .4394-.19688.4394-.43945 0-.24258-.1968-.43946-.4394-.43946z"/></g></svg>