<?xml version="1.0" standalone="no"?><!DOCTYPE svg PUBLIC "-//W3C//DTD SVG 1.1//EN" "http://www.w3.org/Graphics/SVG/1.1/DTD/svg11.dtd"><svg t="1680071459698" class="icon" viewBox="0 0 1024 1024" version="1.1" xmlns="http://www.w3.org/2000/svg" p-id="33101" xmlns:xlink="http://www.w3.org/1999/xlink" width="200" height="200"><path d="M879.7 405.2h0.7l-82.1-246.5c-2.2-6.7-8.6-11.3-15.7-11.3H248.4c-7.1 0-13.4 4.6-15.7 11.3l-82.1 246.5h0.6c-3.5 11.6-5.9 23.7-5.9 36.4 0 70.3 57 127.3 127.3 127.3 57.7 0 105.8-38.6 121.5-91.2 15.6 52.6 63.8 91.2 121.5 91.2 57.6 0 105.7-38.5 121.4-91 15.7 52.5 63.8 91 121.4 91 70.3 0 127.3-57 127.3-127.3 0-12.8-2.5-24.8-6-36.4z m-485.6 0.3c0-0.1-0.1-0.2-0.1-0.3h0.2c-0.1 0.1-0.1 0.2-0.1 0.3z m242.9-0.2v-0.1h0.1c-0.1 0-0.1 0.1-0.1 0.1zM637 601c-33.9 26-76.1 41-121.4 41-45.4 0-87.6-15-121.5-41-33.9 26-76.1 41-121.5 41-24 0-47-4.4-68.3-12.1v234.3c0 9.1 7.4 16.5 16.5 16.5h587.4c9.1 0 16.5-7.4 16.5-16.5V630.4c-20.8 7.3-43 11.5-66.2 11.5-45.4 0-87.7-14.9-121.5-40.9z" fill="#FFF6E6" p-id="33102"></path></svg>