<svg width="20" height="18" viewBox="0 0 20 18" fill="none" xmlns="http://www.w3.org/2000/svg">
<path d="M17.7596 14.1905L11.0303 1.91989C10.7826 1.46854 10.3995 1.20996 9.9789 1.20996C9.55845 1.20996 9.17482 1.46852 8.92734 1.91952L6.1938 6.89214H3.10256C2.79954 6.89304 2.50919 7.01381 2.29492 7.22808C2.08065 7.44235 1.95988 7.7327 1.95898 8.03572V14.8972C1.95988 15.2002 2.08065 15.4906 2.29492 15.7048C2.50919 15.9191 2.79954 16.0399 3.10256 16.0408H9.96404C10.0037 16.0408 10.0434 16.0387 10.0829 16.0345C10.1086 16.0381 10.1346 16.0399 10.1606 16.0399H16.6647C17.1717 16.0399 17.5866 15.8303 17.803 15.4649C18.0193 15.0995 18.0034 14.6351 17.7597 14.1905H17.7596ZM3.10453 8.03572H9.96209L9.96406 8.03769V9.78682H3.10256V8.03769C3.10318 8.03699 3.10383 8.03633 3.10453 8.03572ZM3.10256 10.9304H9.96404V12.074H3.10256V10.9304ZM3.10256 14.8953V13.2176H9.96404V14.8953L9.96208 14.8972H3.10453L3.10256 14.8953ZM16.6647 14.8972H11.1076V8.03574C11.1067 7.73272 10.986 7.44236 10.7717 7.2281C10.5574 7.01383 10.2671 6.89306 9.96406 6.89216H7.4982L9.92922 2.46971C9.94367 2.44298 9.96009 2.41735 9.97835 2.39306C9.99658 2.41737 10.013 2.44299 10.0275 2.4697L16.7571 14.7405C16.7821 14.7826 16.7998 14.8287 16.8093 14.8767C16.7626 14.8917 16.7137 14.8986 16.6647 14.8972V14.8972Z" fill="#3EBC80"/>
</svg>
